<svg xmlns="http://www.w3.org/2000/svg" width="47" height="47" viewBox="0 0 47 47" aria-hidden="true"><path d="M522.833,209.5a23.5,23.5,0,1,1,23.5-23.5A23.527,23.527,0,0,1,522.833,209.5Zm0-45a21.5,21.5,0,1,0,21.5,21.5A21.524,21.524,0,0,0,522.833,164.5Z" transform="translate(-499.333 -162.5)" fill="#fff"/><g transform="translate(17.926 14)"><path d="M518.259,195.5a1,1,0,0,1-1-1v-17a1,1,0,0,1,1.5-.866l14.722,8.5a1,1,0,0,1,0,1.732l-14.722,8.5A.992.992,0,0,1,518.259,195.5Zm1-16.268v13.536L530.981,186Z" transform="translate(-517.259 -176.5)" fill="#fff"/></g></svg>